<svg id="Layer_1" data-name="Layer 1" xmlns="http://www.w3.org/2000/svg" xmlns:xlink="http://www.w3.org/1999/xlink" viewBox="0 0 1366 768"><defs><style>.cls-1{fill:none;}.cls-2{opacity:0.67;mix-blend-mode:multiply;}.cls-3{fill:#a0a0a0;}.cls-4{fill:#6b6b6b;}.cls-5{opacity:0.1;fill:url(#New_Pattern_2);}</style><pattern id="New_Pattern_2" data-name="New Pattern 2" width="439.84" height="442.76" patternTransform="translate(35.16 134.29) scale(0.5)" patternUnits="userSpaceOnUse" viewBox="0 0 439.84 442.76"><rect class="cls-1" width="439.84" height="442.76"/><g class="cls-2"><path class="cls-3" d="M269.84,84.71a13.35,13.35,0,0,1-6.67,11.56v23.5c0,19.32-16.49,35.05-36.72,35.05-19.91,0-36.16-15.19-36.7-34A33.43,33.43,0,0,1,163,88.05V55.63a5,5,0,0,1,4-4.92l13.1-2.59A5,5,0,0,1,186,52l.65,3.28a5,5,0,0,1-3.92,5.88l-6.41,1.27V88a20,20,0,1,0,40.06-.25V62.45L210,61.18a5,5,0,0,1-3.92-5.88l.67-3.28a5,5,0,0,1,5.88-3.92l13.13,2.63a5,5,0,0,1,4,4.9V88.05a33.47,33.47,0,0,1-26.66,32.72c.56,11.49,10.83,20.69,23.35,20.69,12.89,0,23.36-9.74,23.36-21.69V96.27a13.35,13.35,0,1,1,20-11.56Zm-10,0a3.34,3.34,0,1,0-3.34,3.34A3.34,3.34,0,0,0,259.83,84.71Z"/></g><path class="cls-4" d="M265.84,80.71a13.35,13.35,0,0,1-6.67,11.56v23.5c0,19.32-16.49,35.05-36.72,35.05-19.91,0-36.16-15.19-36.7-34A33.43,33.43,0,0,1,159,84.05V51.63a5,5,0,0,1,4-4.92l13.1-2.59A5,5,0,0,1,182,48l.65,3.28a5,5,0,0,1-3.92,5.88l-6.41,1.27V84a20,20,0,1,0,40.06-.25V58.45L206,57.18a5,5,0,0,1-3.92-5.88l.67-3.28a5,5,0,0,1,5.88-3.92l13.13,2.63a5,5,0,0,1,4,4.9V84.05a33.47,33.47,0,0,1-26.66,32.72c.56,11.49,10.83,20.69,23.35,20.69,12.89,0,23.36-9.74,23.36-21.69V92.27a13.35,13.35,0,1,1,20-11.56Zm-10,0a3.34,3.34,0,1,0-3.34,3.34A3.34,3.34,0,0,0,255.83,80.71Z"/><g class="cls-2"><path class="cls-3" d="M432.84,177.79A29.77,29.77,0,0,1,424.07,199l-26.84,26.84-26.84,26.83A30,30,0,1,1,328,210.28l26.83-26.84,26.84-26.84a30,30,0,0,1,51.15,21.19ZM388.75,223l-31.07-31.08-24,24A22,22,0,1,0,364.74,247Zm36.1-45.2a22,22,0,0,0-37.51-15.54l-24,24,31.07,31.08,24-24A21.83,21.83,0,0,0,424.85,177.79Z"/></g><path class="cls-4" d="M428.84,173.79A29.77,29.77,0,0,1,420.07,195l-26.84,26.84-26.84,26.83A30,30,0,1,1,324,206.28l26.83-26.84,26.84-26.84a30,30,0,0,1,51.15,21.19ZM384.75,219l-31.07-31.08-24,24A22,22,0,1,0,360.74,243Zm36.1-45.2a22,22,0,0,0-37.51-15.54l-24,24,31.07,31.08,24-24A21.83,21.83,0,0,0,420.85,173.79Z"/><g class="cls-2"><path class="cls-3" d="M137.21,205.11a6.49,6.49,0,1,1-6.49,6.49A6.5,6.5,0,0,1,137.21,205.11Zm0,4.13a2.36,2.36,0,1,0,2.36,2.36A2.36,2.36,0,0,0,137.21,209.24Z"/><path class="cls-3" d="M120,197.38a6.49,6.49,0,1,1-6.49,6.49A6.5,6.5,0,0,1,120,197.38Zm0,4.13a2.36,2.36,0,1,0,2.36,2.36A2.36,2.36,0,0,0,120,201.51Z"/><path class="cls-3" d="M120,249.22a6.49,6.49,0,1,1-6.49,6.48A6.49,6.49,0,0,1,120,249.22Zm0,4.12a2.36,2.36,0,1,0,2.36,2.36A2.36,2.36,0,0,0,120,253.34Z"/><path class="cls-3" d="M142.67,251.41a6.49,6.49,0,1,1,6.49,6.49A6.49,6.49,0,0,1,142.67,251.41Zm4.13,0a2.36,2.36,0,1,0,2.36-2.36A2.36,2.36,0,0,0,146.8,251.41Z"/><path class="cls-3" d="M143.7,269a6.49,6.49,0,1,1-6.49-6.49A6.5,6.5,0,0,1,143.7,269Zm-4.13,0a2.36,2.36,0,1,0-2.36,2.36A2.36,2.36,0,0,0,139.57,269Z"/><path class="cls-3" d="M49.14,211.6a6.49,6.49,0,1,1,6.49,6.48A6.5,6.5,0,0,1,49.14,211.6Zm4.13,0a2.36,2.36,0,1,0,2.36-2.36A2.36,2.36,0,0,0,53.27,211.6Z"/><path class="cls-3" d="M72.87,210.35a6.49,6.49,0,1,1,6.48-6.48A6.49,6.49,0,0,1,72.87,210.35Zm0-4.12a2.36,2.36,0,1,0-2.36-2.36A2.36,2.36,0,0,0,72.87,206.23Z"/><path class="cls-3" d="M72.87,262.19a6.49,6.49,0,1,1,6.48-6.49A6.5,6.5,0,0,1,72.87,262.19Zm0-4.13a2.36,2.36,0,1,0-2.36-2.36A2.36,2.36,0,0,0,72.87,258.06Z"/><path class="cls-3" d="M50.17,251.41a6.49,6.49,0,1,1-6.49-6.48A6.5,6.5,0,0,1,50.17,251.41Zm-4.13,0a2.36,2.36,0,1,0-2.36,2.36A2.36,2.36,0,0,0,46,251.41Z"/><path class="cls-3" d="M49.14,269a6.49,6.49,0,1,1,6.49,6.49A6.5,6.5,0,0,1,49.14,269Zm4.13,0a2.36,2.36,0,1,0,2.36-2.36A2.36,2.36,0,0,0,53.27,269Z"/><path class="cls-3" d="M31.17,271.62a2.07,2.07,0,0,1-2.74-1,26.47,26.47,0,0,1-2.35-13c1.42-18.58,8-39.22,14.43-51.17,6.93-12.89,15.38-20,25.14-21.13a26.29,26.29,0,0,1,20.66,6.62V163A2.07,2.07,0,0,1,88.38,161h16.08a2.07,2.07,0,0,1,2.07,2.06v28.87a26.28,26.28,0,0,1,20.66-6.62,24.48,24.48,0,0,1,10.17,3.64,2.06,2.06,0,1,1-2.18,3.5,20.31,20.31,0,0,0-8.46-3,21.82,21.82,0,0,0-20.19,8.71v10.47c7.4,7.84,19.34,12.61,30,14.85a10.11,10.11,0,1,1-4.16,19.78,90.32,90.32,0,0,1-25.8-9.47v20A24.37,24.37,0,0,0,122,276.47l9.93,3.94a22.5,22.5,0,0,0,30.74-22.53,117.62,117.62,0,0,0-3-18.92c-4.75-19.45-11-33.43-18.54-41.57a2.06,2.06,0,1,1,3-2.81c8,8.66,14.61,23.26,19.53,43.4a121.53,121.53,0,0,1,3.11,19.58c1.48,19.23-17.87,34-36.37,26.68l-9.93-3.94a28.61,28.61,0,0,1-18.06-26.61v-22.5a63,63,0,0,1-6-4.45,64.35,64.35,0,0,1-6,4.45v22.5A28.61,28.61,0,0,1,72.38,280.3l-9.93,3.94a26.53,26.53,0,0,1-28.85-6.12,2.06,2.06,0,0,1,2.95-2.89,22.41,22.41,0,0,0,24.38,5.18l9.92-3.94a24.37,24.37,0,0,0,15.46-22.78v-20a88.86,88.86,0,0,1-25.79,9.47,10.11,10.11,0,0,1-5.15-19.53c1.65-.51,20.11-3.62,30.94-15.1V198.08a21.82,21.82,0,0,0-20.19-8.71C52.11,191,40.73,208.14,33.2,239a117.79,117.79,0,0,0-3,18.92,22.26,22.26,0,0,0,2,11,2.06,2.06,0,0,1-1,2.74ZM90.44,165.08v44.28a2.08,2.08,0,0,1-.52,1.37c-11.56,13-31.7,16.35-33.3,16.86a6,6,0,0,0,3,11.55C72.21,236.61,85.47,231,95,222.48a2.06,2.06,0,0,1,2.75,0c7.82,7,19.51,13.31,35.36,16.66,7.52,1.63,10.51-10,2.49-11.7-11.81-2.58-24.71-7.72-32.72-16.71a2.08,2.08,0,0,1-.52-1.37V165.08Z"/></g><path class="cls-4" d="M133.21,201.11a6.49,6.49,0,1,1-6.49,6.49A6.5,6.5,0,0,1,133.21,201.11Zm0,4.13a2.36,2.36,0,1,0,2.36,2.36A2.36,2.36,0,0,0,133.21,205.24Z"/><path class="cls-4" d="M116,193.38a6.49,6.49,0,1,1-6.49,6.49A6.5,6.5,0,0,1,116,193.38Zm0,4.13a2.36,2.36,0,1,0,2.36,2.36A2.36,2.36,0,0,0,116,197.51Z"/><path class="cls-4" d="M116,245.22a6.49,6.49,0,1,1-6.49,6.48A6.49,6.49,0,0,1,116,245.22Zm0,4.12a2.36,2.36,0,1,0,2.36,2.36A2.36,2.36,0,0,0,116,249.34Z"/><path class="cls-4" d="M138.67,247.41a6.49,6.49,0,1,1,6.49,6.49A6.49,6.49,0,0,1,138.67,247.41Zm4.13,0a2.36,2.36,0,1,0,2.36-2.36A2.36,2.36,0,0,0,142.8,247.41Z"/><path class="cls-4" d="M139.7,265a6.49,6.49,0,1,1-6.49-6.49A6.5,6.5,0,0,1,139.7,265Zm-4.13,0a2.36,2.36,0,1,0-2.36,2.36A2.36,2.36,0,0,0,135.57,265Z"/><path class="cls-4" d="M45.14,207.6a6.49,6.49,0,1,1,6.49,6.48A6.5,6.5,0,0,1,45.14,207.6Zm4.13,0a2.36,2.36,0,1,0,2.36-2.36A2.36,2.36,0,0,0,49.27,207.6Z"/><path class="cls-4" d="M68.87,206.35a6.49,6.49,0,1,1,6.48-6.48A6.49,6.49,0,0,1,68.87,206.35Zm0-4.12a2.36,2.36,0,1,0-2.36-2.36A2.36,2.36,0,0,0,68.87,202.23Z"/><path class="cls-4" d="M68.87,258.19a6.49,6.49,0,1,1,6.48-6.49A6.5,6.5,0,0,1,68.87,258.19Zm0-4.13a2.36,2.36,0,1,0-2.36-2.36A2.36,2.36,0,0,0,68.87,254.06Z"/><path class="cls-4" d="M46.17,247.41a6.49,6.49,0,1,1-6.49-6.48A6.5,6.5,0,0,1,46.17,247.41Zm-4.13,0a2.36,2.36,0,1,0-2.36,2.36A2.36,2.36,0,0,0,42,247.41Z"/><path class="cls-4" d="M45.14,265a6.49,6.49,0,1,1,6.49,6.49A6.5,6.5,0,0,1,45.14,265Zm4.13,0a2.36,2.36,0,1,0,2.36-2.36A2.36,2.36,0,0,0,49.27,265Z"/><path class="cls-4" d="M27.17,267.62a2.07,2.07,0,0,1-2.74-1,26.47,26.47,0,0,1-2.35-13c1.42-18.58,8-39.22,14.43-51.17,6.93-12.89,15.38-20,25.14-21.13a26.29,26.29,0,0,1,20.66,6.62V159A2.07,2.07,0,0,1,84.38,157h16.08a2.07,2.07,0,0,1,2.07,2.06v28.87a26.28,26.28,0,0,1,20.66-6.62,24.48,24.48,0,0,1,10.17,3.64,2.06,2.06,0,1,1-2.18,3.5,20.31,20.31,0,0,0-8.46-3,21.82,21.82,0,0,0-20.19,8.71v10.47c7.4,7.84,19.34,12.61,30,14.85a10.11,10.11,0,1,1-4.16,19.78,90.32,90.32,0,0,1-25.8-9.47v20A24.37,24.37,0,0,0,118,272.47l9.93,3.94a22.5,22.5,0,0,0,30.74-22.53,117.62,117.62,0,0,0-3-18.92c-4.75-19.45-11-33.43-18.54-41.57a2.06,2.06,0,1,1,3-2.81c8,8.66,14.61,23.26,19.53,43.4a121.53,121.53,0,0,1,3.11,19.58c1.48,19.23-17.87,34-36.37,26.68l-9.93-3.94A28.61,28.61,0,0,1,98.4,249.69v-22.5a63,63,0,0,1-6-4.45,64.35,64.35,0,0,1-6,4.45v22.5A28.61,28.61,0,0,1,68.38,276.3l-9.93,3.94a26.53,26.53,0,0,1-28.85-6.12,2.06,2.06,0,0,1,2.95-2.89,22.41,22.41,0,0,0,24.38,5.18l9.92-3.94a24.37,24.37,0,0,0,15.46-22.78v-20a88.86,88.86,0,0,1-25.79,9.47,10.11,10.11,0,0,1-5.15-19.53c1.65-.51,20.11-3.62,30.94-15.1V194.08a21.82,21.82,0,0,0-20.19-8.71C48.11,187,36.73,204.14,29.2,235a117.79,117.79,0,0,0-3,18.92,22.26,22.26,0,0,0,2,11,2.06,2.06,0,0,1-1,2.74ZM86.44,161.08v44.28a2.08,2.08,0,0,1-.52,1.37c-11.56,13-31.7,16.35-33.3,16.86a6,6,0,0,0,3,11.55C68.21,232.61,81.47,227,91,218.48a2.06,2.06,0,0,1,2.75,0c7.82,7,19.51,13.31,35.36,16.66,7.52,1.63,10.51-10,2.49-11.7-11.81-2.58-24.71-7.72-32.72-16.71a2.08,2.08,0,0,1-.52-1.37V161.08Z"/><g class="cls-2"><path class="cls-3" d="M265.22,376.54a2.65,2.65,0,1,1-2.65-2.65A2.65,2.65,0,0,1,265.22,376.54Z"/></g><path class="cls-4" d="M261.22,372.54a2.65,2.65,0,1,1-2.65-2.65A2.65,2.65,0,0,1,261.22,372.54Z"/><g class="cls-2"><path class="cls-3" d="M191.05,376.54a2.65,2.65,0,1,1-2.64-2.65A2.65,2.65,0,0,1,191.05,376.54Z"/></g><path class="cls-4" d="M187.05,372.54a2.65,2.65,0,1,1-2.64-2.65A2.65,2.65,0,0,1,187.05,372.54Z"/><g class="cls-2"><path class="cls-3" d="M252,387.14V403a2.65,2.65,0,0,1-2.65,2.65H236.08v13.24a2.65,2.65,0,0,1-2.65,2.65H217.54a2.65,2.65,0,0,1-2.65-2.65V405.68H201.65A2.65,2.65,0,0,1,199,403V387.14a2.65,2.65,0,0,1,2.65-2.65h13.24V371.24a2.65,2.65,0,0,1,2.65-2.65h15.89a2.65,2.65,0,0,1,2.65,2.65v13.25h13.25A2.65,2.65,0,0,1,252,387.14Zm-5.3,2.64H233.43a2.64,2.64,0,0,1-2.64-2.64V373.89h-10.6v13.25a2.65,2.65,0,0,1-2.65,2.64H204.3v10.6h13.24a2.65,2.65,0,0,1,2.65,2.65v13.24h10.6V403a2.64,2.64,0,0,1,2.64-2.65h13.25Z"/></g><path class="cls-4" d="M248,383.14V399a2.65,2.65,0,0,1-2.65,2.65H232.08v13.24a2.65,2.65,0,0,1-2.65,2.65H213.54a2.65,2.65,0,0,1-2.65-2.65V401.68H197.65A2.65,2.65,0,0,1,195,399V383.14a2.65,2.65,0,0,1,2.65-2.65h13.24V367.24a2.65,2.65,0,0,1,2.65-2.65h15.89a2.65,2.65,0,0,1,2.65,2.65v13.25h13.25A2.65,2.65,0,0,1,248,383.14Zm-5.3,2.64H229.43a2.64,2.64,0,0,1-2.64-2.64V369.89h-10.6v13.25a2.65,2.65,0,0,1-2.65,2.64H200.3v10.6h13.24a2.65,2.65,0,0,1,2.65,2.65v13.24h10.6V399a2.64,2.64,0,0,1,2.64-2.65h13.25Z"/><g class="cls-2"><path class="cls-3" d="M288,360.65v68.86a13.26,13.26,0,0,1-13.25,13.25H165.63a13.26,13.26,0,0,1-13.25-13.25V360.65a13.27,13.27,0,0,1,13.25-13.25h20.13V331.51a15.91,15.91,0,0,1,15.89-15.89h37.08a15.9,15.9,0,0,1,15.89,15.89V347.4h20.13A13.27,13.27,0,0,1,288,360.65ZM191.05,347.4h5.3V334.16a8,8,0,0,1,8-8h31.78a8,8,0,0,1,7.95,8V347.4h5.3V331.51a10.61,10.61,0,0,0-10.6-10.59H201.65a10.61,10.61,0,0,0-10.6,10.59Zm45-15.89H204.3a2.65,2.65,0,0,0-2.65,2.65V347.4h37.08V334.16A2.65,2.65,0,0,0,236.08,331.51ZM169.86,352.7h-4.23a8,8,0,0,0-7.95,7.95v68.86a8,8,0,0,0,7.95,7.95h4.23Zm95.36,0h-5.3V366a2.65,2.65,0,0,1-5.3,0V352.7H185.76V366a2.65,2.65,0,0,1-5.3,0V352.7h-5.3v84.76h5.3V387.14a2.65,2.65,0,1,1,5.3,0v50.32h68.86V387.14a2.65,2.65,0,0,1,5.3,0v50.32h5.3Zm17.48,7.95a8,8,0,0,0-7.95-7.95h-4.23v84.76h4.23a8,8,0,0,0,7.95-7.95Z"/></g><path class="cls-4" d="M284,356.65v68.86a13.26,13.26,0,0,1-13.25,13.25H161.63a13.26,13.26,0,0,1-13.25-13.25V356.65a13.27,13.27,0,0,1,13.25-13.25h20.13V327.51a15.91,15.91,0,0,1,15.89-15.89h37.08a15.9,15.9,0,0,1,15.89,15.89V343.4h20.13A13.27,13.27,0,0,1,284,356.65ZM187.05,343.4h5.3V330.16a8,8,0,0,1,8-8h31.78a8,8,0,0,1,7.95,8V343.4h5.3V327.51a10.61,10.61,0,0,0-10.6-10.59H197.65a10.61,10.61,0,0,0-10.6,10.59Zm45-15.89H200.3a2.65,2.65,0,0,0-2.65,2.65V343.4h37.08V330.16A2.65,2.65,0,0,0,232.08,327.51ZM165.86,348.7h-4.23a8,8,0,0,0-7.95,7.95v68.86a8,8,0,0,0,7.95,7.95h4.23Zm95.36,0h-5.3V362a2.65,2.65,0,0,1-5.3,0V348.7H181.76V362a2.65,2.65,0,0,1-5.3,0V348.7h-5.3v84.76h5.3V383.14a2.65,2.65,0,1,1,5.3,0v50.32h68.86V383.14a2.65,2.65,0,1,1,5.3,0v50.32h5.3Zm17.48,7.95a8,8,0,0,0-7.95-7.95h-4.23v84.76h4.23a8,8,0,0,0,7.95-7.95Z"/></pattern></defs><rect class="cls-5" width="1366" height="768"/></svg>